<svg xmlns="http://www.w3.org/2000/svg" version="1.1" xmlns:xlink="http://www.w3.org/1999/xlink" xmlns:svgjs="http://svgjs.dev/svgjs" width="1000" height="1000" viewBox="0 0 1000 1000"><rect width="1000" height="1000" fill="#ffffff"></rect><g transform="matrix(0.7,0,0,0.7,149.5757586910857,383.4077718185029)"><svg viewBox="0 0 396 132" data-background-color="#046380" preserveAspectRatio="xMidYMid meet" height="333" width="1000" xmlns="http://www.w3.org/2000/svg" xmlns:xlink="http://www.w3.org/1999/xlink"><g id="tight-bounds" transform="matrix(1,0,0,1,0.23999936904294827,0.023912998531187668)"><svg viewBox="0 0 395.52 131.95217400293762" height="131.95217400293762" width="395.52"><g><svg viewBox="0 0 618.757161980551 206.42787394625182" height="131.95217400293762" width="395.52"><g transform="matrix(1,0,0,1,223.23716198055098,53.42429057991516)"><svg viewBox="0 0 395.52 99.5792927864215" height="99.5792927864215" width="395.52"><g id="textblocktransform"><svg viewBox="0 0 395.52 99.5792927864215" height="99.5792927864215" width="395.52" id="textblock"><g><svg viewBox="0 0 395.52 99.5792927864215" height="99.5792927864215" width="395.52"><g transform="matrix(1,0,0,1,0,0)"><svg width="395.52" viewBox="2.8499999046325684 -35.099998474121094 141.38999938964844 35.599998474121094" height="99.5792927864215" data-palette-color="#ffffff"><g class="undefined-text-0" data-fill-palette-color="primary" id="text-0"><path d="M6.8-17.15Q6.8-9.55 8.8-6.23 10.8-2.9 16.53-2.9 22.25-2.9 24.23-6.15 26.2-9.4 26.2-17.05 26.2-24.7 24.15-28.2 22.1-31.7 16.48-31.7 10.85-31.7 8.83-28.23 6.8-24.75 6.8-17.15ZM30.2-17.05Q30.2-7.8 27.25-3.65 24.3 0.5 16.53 0.5 8.75 0.5 5.8-3.75 2.85-8 2.85-17.13 2.85-26.25 5.85-30.68 8.85-35.1 16.5-35.1 24.15-35.1 27.18-30.7 30.2-26.3 30.2-17.05ZM41.1 0L37.25 0 37.25-34.6 57.95-34.6 57.95-31.2 41.1-31.2 41.1-17.7 55.35-17.7 55.35-14.3 41.1-14.3 41.1 0ZM76.2-11.65L76.2-11.65 67.39-11.65 67.39 0 63.55 0 63.55-34.6 76.2-34.6Q81.84-34.6 84.55-31.85 87.25-29.1 87.25-23.45L87.25-23.45Q87.25-11.65 76.2-11.65ZM67.39-31.2L67.39-15.05 76.15-15.05Q83.3-15.05 83.3-23.45L83.3-23.45Q83.3-27.45 81.59-29.33 79.9-31.2 76.15-31.2L76.15-31.2 67.39-31.2ZM105.84-11.65L105.84-11.65 97.04-11.65 97.04 0 93.19 0 93.19-34.6 105.84-34.6Q111.49-34.6 114.19-31.85 116.89-29.1 116.89-23.45L116.89-23.45Q116.89-11.65 105.84-11.65ZM97.04-31.2L97.04-15.05 105.79-15.05Q112.94-15.05 112.94-23.45L112.94-23.45Q112.94-27.45 111.24-29.33 109.54-31.2 105.79-31.2L105.79-31.2 97.04-31.2ZM129.89-31.15L119.24-31.15 119.24-34.6 144.24-34.6 144.24-31.15 133.69-31.15 133.69 0 129.89 0 129.89-31.15Z" fill="#000000" data-fill-palette-color="primary"></path></g></svg></g></svg></g></svg></g></svg></g><g><svg viewBox="0 0 199.72888085670374 206.42787394625182" height="206.42787394625182" width="199.72888085670374"><g><svg xmlns="http://www.w3.org/2000/svg" xmlns:xlink="http://www.w3.org/1999/xlink" version="1.1" x="0" y="0" viewBox="15.899999618530273 14.100000381469727 80.49999237060547 83.19999694824219" enable-background="new 0 0 100 100" xml:space="preserve" height="206.42787394625182" width="199.72888085670374" class="icon-icon-0" data-fill-palette-color="accent" id="icon-0"><circle cx="45.9" cy="55.2" r="14" fill="#000000" data-fill-palette-color="accent"></circle><line fill="none" stroke="#FFFFFF" stroke-miterlimit="10" x1="37.9" y1="44.7" x2="26.2" y2="26.9"></line><circle cx="23.5" cy="21.7" r="7.6" fill="#000000" data-fill-palette-color="accent"></circle><line fill="none" stroke="#FFFFFF" stroke-miterlimit="10" x1="48.1" y1="44.7" x2="51.3" y2="27.7"></line><circle cx="52.3" cy="23.9" r="4.9" fill="#000000" data-fill-palette-color="accent"></circle><line fill="none" stroke="#FFFFFF" stroke-miterlimit="10" x1="57" y1="55.5" x2="77.8" y2="59.2"></line><circle fill="none" stroke="#FFFFFF" stroke-miterlimit="10" cx="87" cy="61.3" r="9.4"></circle><circle stroke="#FFFFFF" stroke-miterlimit="10" cx="32.5" cy="89.7" r="7.6" fill="#000000" data-fill-palette-color="accent"></circle><line fill="none" stroke="#FFFFFF" stroke-miterlimit="10" x1="40.1" y1="67.4" x2="34.9" y2="82.5"></line></svg></g></svg></g></svg></g><defs></defs></svg><rect width="395.52" height="131.95217400293762" fill="none" stroke="none" visibility="hidden"></rect></g></svg></g></svg>